<svg xmlns="http://www.w3.org/2000/svg" viewBox="0 0 120 120">
  <!-- Close-up of Badb happily munching a bagel (chewing + bagel bob are
       animated with SMIL so this works even loaded through an <img> tag) -->

  <!-- sparkles -->
  <path d="M18 28 L 20 33 L 25 35 L 20 37 L 18 42 L 16 37 L 11 35 L 16 33 Z" fill="#f4c94f"/>
  <path d="M103 34 L 104.5 38 L 108 39.5 L 104.5 41 L 103 45 L 101.5 41 L 98 39.5 L 101.5 38 Z" fill="#f4c94f"/>

  <!-- back hair -->
  <path d="M60 8
           C 34 8, 22 26, 24 44
           C 24.5 54, 20 60, 21 70
           C 22 80, 30 83, 36 79
           L 36 58 L 84 58 L 84 79
           C 90 83, 98 80, 99 70
           C 100 60, 95.5 54, 96 44
           C 98 26, 86 8, 60 8 Z"
        fill="#e2a94e"/>
  <path d="M26 46 C 24 54, 22 58, 23.5 68 C 25 74, 30 75, 33 72 C 29 64, 30 54, 28 48 Z" fill="#f0be66"/>
  <path d="M94 46 C 96 54, 98 58, 96.5 68 C 95 74, 90 75, 87 72 C 91 64, 90 54, 92 48 Z" fill="#f0be66"/>

  <!-- face -->
  <circle cx="60" cy="50" r="32" fill="#ffdfc9"/>
  <ellipse cx="41" cy="60" rx="7" ry="4.5" fill="#f59f96" opacity="0.6"/>
  <ellipse cx="79" cy="60" rx="7" ry="4.5" fill="#f59f96" opacity="0.6"/>

  <!-- happy closed eyes -->
  <path d="M40 49 Q 46 42.5, 52 49" stroke="#463829" stroke-width="2.6" fill="none" stroke-linecap="round"/>
  <path d="M68 49 Q 74 42.5, 80 49" stroke="#463829" stroke-width="2.6" fill="none" stroke-linecap="round"/>

  <!-- nose + chewing mouth -->
  <path d="M58 59 C 59 60.5, 61 60.5, 62 59" stroke="#e8b49a" stroke-width="1.6" fill="none" stroke-linecap="round"/>
  <ellipse cx="60" cy="70" rx="6" ry="3.5" fill="#a85c55">
    <animate attributeName="ry" values="2;5;2" dur="0.75s" repeatCount="indefinite"/>
    <animate attributeName="cy" values="69;71;69" dur="0.75s" repeatCount="indefinite"/>
  </ellipse>

  <!-- fringe -->
  <path d="M28 46
           C 26 18, 42 11, 60 11
           C 78 11, 94 18, 92 46
           C 89 40, 87 37.5, 84.5 40
           C 82 34.5, 77 34, 74 38
           C 71 33, 64 33, 61 37
           C 58 33, 51 33.5, 48.5 38
           C 45 34.5, 41 35.5, 39.5 40
           C 36 37.5, 33 40, 28 46 Z"
        fill="#e8b04b"/>
  <path d="M42 15 C 50 12.5, 70 12.5, 78 15 C 70 17, 50 17, 42 15 Z" fill="#f2c66d" opacity="0.8"/>

  <!-- duck clip -->
  <circle cx="87" cy="17" r="2.2" fill="#e05a8a"/>
  <circle cx="93" cy="14" r="4.4" fill="#f7d24b"/>
  <circle cx="94.7" cy="13" r="0.8" fill="#463829"/>
  <path d="M97.2 14 L 100 15 L 97.2 16.1 Z" fill="#e8862f"/>

  <!-- bagel + hands, gently rocking as she munches -->
  <g>
    <animateTransform attributeName="transform" type="rotate"
                      values="-3 60 94; 3 60 94; -3 60 94"
                      dur="1.1s" repeatCount="indefinite"/>
    <!-- bagel: torus with a bite taken out (fill-rule evenodd cuts both
         the middle hole and the bite notch) -->
    <path fill-rule="evenodd" fill="#dda15e"
          d="M60 77 a 17 17 0 1 0 0.001 0 Z
             M60 87.5 a 6.5 6.5 0 1 0 0.001 0 Z
             M73 75 a 7 7 0 1 0 0.001 0 Z"/>
    <path d="M46 87 C 49 80.5, 55 77.5, 60 77.5" stroke="#e9b877" stroke-width="3" fill="none" stroke-linecap="round"/>
    <!-- sesame seeds -->
    <ellipse cx="49" cy="90" rx="1.8" ry="1" fill="#f7ead2" transform="rotate(-30 49 90)"/>
    <ellipse cx="55" cy="82" rx="1.8" ry="1" fill="#f7ead2" transform="rotate(20 55 82)"/>
    <ellipse cx="66" cy="106" rx="1.8" ry="1" fill="#f7ead2" transform="rotate(-15 66 106)"/>
    <ellipse cx="52" cy="103" rx="1.8" ry="1" fill="#f7ead2" transform="rotate(40 52 103)"/>
    <ellipse cx="72" cy="97" rx="1.8" ry="1" fill="#f7ead2" transform="rotate(10 72 97)"/>
    <!-- hands -->
    <circle cx="44" cy="96" r="7.5" fill="#ffdfc9"/>
    <circle cx="76" cy="98" r="7.5" fill="#ffdfc9"/>
  </g>
</svg>
